<?xml version="1.0" encoding="utf-8"?>
<svg version="1.1" id="Design" x="0px" y="0px" viewBox="0 0 288 288" style="enable-background:new 0 0 288 288;" xmlns="http://www.w3.org/2000/svg">
  <g>
    <radialGradient id="XMLID_00000036972209504750435860000018192834978846619530_" cx="143.9995" cy="144" r="236.5953" gradientUnits="userSpaceOnUse">
      <stop offset="0" style="stop-color:#2B4C66"/>
      <stop offset="0.4155" style="stop-color:#1B3750"/>
      <stop offset="1" style="stop-color:#00142B"/>
    </radialGradient>
    <rect id="XMLID_15_" x="-0.001" style="fill:url(#XMLID_00000036972209504750435860000018192834978846619530_);" width="288.001" height="288"/>
    <g>
      <rect x="60.661" y="227.617" style="fill:#A3BEBF;" width="167.53" height="0.404"/>
    </g>
    <g>
      <rect x="164.37" y="84.393" style="fill:#62F2FF;" width="2.465" height="2.465"/>
      <rect x="131.407" y="202.369" style="fill:#62F2FF;" width="2.467" height="2.468"/>
      <rect x="164.265" y="82.894" style="fill:#62F2FF;" width="2.465" height="0.723"/>
      <rect x="139.099" y="196.023" style="fill:#62F2FF;" width="2.467" height="2.465"/>
      <rect x="135.298" y="199.196" style="fill:#62F2FF;" width="2.467" height="2.466"/>
      <rect x="127.578" y="205.545" style="fill:#62F2FF;" width="2.467" height="2.465"/>
      <rect x="161.836" y="145.237" style="fill:#62F2FF;" width="2.466" height="2.465"/>
      <rect x="165.074" y="103.885" style="fill:#62F2FF;" width="2.466" height="2.466"/>
      <rect x="164.517" y="87.661" style="fill:#62F2FF;" width="2.466" height="2.464"/>
      <rect x="165.13" y="107.094" style="fill:#62F2FF;" width="2.465" height="2.467"/>
      <rect x="164.997" y="100.663" style="fill:#62F2FF;" width="2.466" height="2.465"/>
      <rect x="164.658" y="90.924" style="fill:#62F2FF;" width="2.465" height="2.465"/>
      <rect x="142.693" y="192.848" style="fill:#62F2FF;" width="2.466" height="2.465"/>
      <rect x="164.902" y="97.429" style="fill:#62F2FF;" width="2.466" height="2.464"/>
      <rect x="158.568" y="170.631" style="fill:#62F2FF;" width="2.467" height="2.463"/>
      <rect x="160.873" y="161.107" style="fill:#62F2FF;" width="2.466" height="2.465"/>
      <rect x="161.267" y="157.933" style="fill:#62F2FF;" width="2.467" height="2.466"/>
      <rect x="160.316" y="164.282" style="fill:#62F2FF;" width="2.467" height="2.466"/>
      <rect x="159.56" y="167.457" style="fill:#62F2FF;" width="2.467" height="2.465"/>
      <rect x="161.788" y="148.412" style="fill:#62F2FF;" width="2.467" height="2.465"/>
      <rect x="161.696" y="151.584" style="fill:#62F2FF;" width="2.466" height="2.467"/>
      <rect x="161.53" y="154.759" style="fill:#62F2FF;" width="2.467" height="2.466"/>
      <rect x="155.738" y="176.979" style="fill:#62F2FF;" width="2.467" height="2.465"/>
      <rect x="151.589" y="183.326" style="fill:#62F2FF;" width="2.466" height="2.463"/>
      <rect x="165.169" y="110.294" style="fill:#62F2FF;" width="2.465" height="2.467"/>
      <rect x="148.975" y="186.5" style="fill:#62F2FF;" width="2.467" height="2.465"/>
      <rect x="153.841" y="180.151" style="fill:#62F2FF;" width="2.467" height="2.466"/>
      <rect x="157.306" y="173.803" style="fill:#62F2FF;" width="2.467" height="2.466"/>
      <rect x="146.001" y="189.674" style="fill:#62F2FF;" width="2.467" height="2.466"/>
      <rect x="164.788" y="94.182" style="fill:#62F2FF;" width="2.465" height="2.464"/>
      <rect x="161.479" y="173.803" style="fill:#62F2FF;" width="2.465" height="2.466"/>
      <rect x="160.169" y="176.979" style="fill:#62F2FF;" width="2.465" height="2.465"/>
      <rect x="165.192" y="113.483" style="fill:#62F2FF;" width="2.466" height="2.466"/>
      <rect x="156.708" y="183.326" style="fill:#62F2FF;" width="2.464" height="2.463"/>
      <rect x="162.532" y="170.631" style="fill:#62F2FF;" width="2.465" height="2.463"/>
      <rect x="163.981" y="164.282" style="fill:#62F2FF;" width="2.465" height="2.466"/>
      <rect x="163.356" y="167.457" style="fill:#62F2FF;" width="2.465" height="2.465"/>
      <rect x="152.077" y="189.674" style="fill:#62F2FF;" width="2.466" height="2.466"/>
      <rect x="146.435" y="196.023" style="fill:#62F2FF;" width="2.465" height="2.465"/>
      <rect x="143.369" y="199.196" style="fill:#62F2FF;" width="2.466" height="2.466"/>
      <rect x="154.536" y="186.5" style="fill:#62F2FF;" width="2.465" height="2.465"/>
      <rect x="137.237" y="205.545" style="fill:#62F2FF;" width="2.465" height="2.465"/>
      <rect x="164.44" y="161.107" style="fill:#62F2FF;" width="2.464" height="2.465"/>
      <rect x="149.362" y="192.848" style="fill:#62F2FF;" width="2.465" height="2.465"/>
      <rect x="158.584" y="180.151" style="fill:#62F2FF;" width="2.464" height="2.466"/>
      <rect x="165.213" y="126.192" style="fill:#62F2FF;" width="2.466" height="2.465"/>
      <rect x="165.213" y="135.714" style="fill:#62F2FF;" width="2.466" height="2.464"/>
      <rect x="165.213" y="132.54" style="fill:#62F2FF;" width="2.466" height="2.465"/>
      <rect x="165.213" y="129.367" style="fill:#62F2FF;" width="2.466" height="2.466"/>
      <rect x="165.206" y="116.665" style="fill:#62F2FF;" width="2.464" height="2.466"/>
      <rect x="165.212" y="119.844" style="fill:#62F2FF;" width="2.465" height="2.465"/>
      <rect x="165.213" y="123.019" style="fill:#62F2FF;" width="2.466" height="2.464"/>
      <rect x="164.759" y="157.933" style="fill:#62F2FF;" width="2.465" height="2.466"/>
      <rect x="165.096" y="151.584" style="fill:#62F2FF;" width="2.466" height="2.467"/>
      <rect x="165.166" y="148.412" style="fill:#62F2FF;" width="2.466" height="2.465"/>
      <rect x="164.968" y="154.759" style="fill:#62F2FF;" width="2.466" height="2.466"/>
      <rect x="165.198" y="145.237" style="fill:#62F2FF;" width="2.465" height="2.465"/>
      <rect x="165.21" y="142.064" style="fill:#62F2FF;" width="2.465" height="2.464"/>
      <rect x="165.213" y="138.89" style="fill:#62F2FF;" width="2.466" height="2.464"/>
      <rect x="161.854" y="142.064" style="fill:#62F2FF;" width="2.467" height="2.464"/>
      <rect x="158.287" y="151.584" style="fill:#62F2FF;" width="2.466" height="2.467"/>
      <rect x="158.469" y="145.237" style="fill:#62F2FF;" width="2.466" height="2.465"/>
      <rect x="158.407" y="148.412" style="fill:#62F2FF;" width="2.467" height="2.465"/>
      <rect x="158.496" y="142.064" style="fill:#62F2FF;" width="2.467" height="2.464"/>
      <rect x="158.505" y="132.54" style="fill:#62F2FF;" width="2.466" height="2.465"/>
      <rect x="158.505" y="138.89" style="fill:#62F2FF;" width="2.466" height="2.464"/>
      <rect x="158.505" y="135.714" style="fill:#62F2FF;" width="2.466" height="2.464"/>
      <rect x="155.738" y="167.457" style="fill:#62F2FF;" width="2.466" height="2.465"/>
      <rect x="158.505" y="129.367" style="fill:#62F2FF;" width="2.466" height="2.466"/>
      <rect x="156.63" y="164.282" style="fill:#62F2FF;" width="2.467" height="2.466"/>
      <rect x="158.083" y="154.759" style="fill:#62F2FF;" width="2.467" height="2.466"/>
      <rect x="154.573" y="170.631" style="fill:#62F2FF;" width="2.467" height="2.463"/>
      <rect x="157.762" y="157.933" style="fill:#62F2FF;" width="2.467" height="2.466"/>
      <rect x="153.095" y="173.803" style="fill:#62F2FF;" width="2.467" height="2.466"/>
      <rect x="157.29" y="161.107" style="fill:#62F2FF;" width="2.467" height="2.465"/>
      <rect x="157.185" y="93.611" style="fill:#62F2FF;" width="2.467" height="2.464"/>
      <rect x="157.961" y="103.627" style="fill:#62F2FF;" width="2.467" height="2.465"/>
      <rect x="157.743" y="100.313" style="fill:#62F2FF;" width="2.466" height="2.465"/>
      <rect x="140.263" y="202.369" style="fill:#62F2FF;" width="2.464" height="2.468"/>
      <rect x="156.159" y="83.435" style="fill:#62F2FF;" width="2.467" height="2.465"/>
      <rect x="156.858" y="90.228" style="fill:#62F2FF;" width="2.467" height="2.465"/>
      <rect x="156.512" y="86.834" style="fill:#62F2FF;" width="2.466" height="2.463"/>
      <rect x="157.482" y="96.975" style="fill:#62F2FF;" width="2.467" height="2.464"/>
      <rect x="158.435" y="116.626" style="fill:#62F2FF;" width="2.467" height="2.465"/>
      <rect x="158.474" y="119.824" style="fill:#62F2FF;" width="2.467" height="2.465"/>
      <rect x="158.138" y="106.913" style="fill:#62F2FF;" width="2.467" height="2.467"/>
      <rect x="158.494" y="123.012" style="fill:#62F2FF;" width="2.467" height="2.464"/>
      <rect x="158.273" y="110.173" style="fill:#62F2FF;" width="2.467" height="2.467"/>
      <rect x="158.37" y="113.41" style="fill:#62F2FF;" width="2.466" height="2.466"/>
      <rect x="158.503" y="126.191" style="fill:#62F2FF;" width="2.467" height="2.464"/>
      <rect x="161.801" y="113.459" style="fill:#62F2FF;" width="2.467" height="2.465"/>
      <rect x="161.833" y="116.653" style="fill:#62F2FF;" width="2.466" height="2.466"/>
      <rect x="161.749" y="110.251" style="fill:#62F2FF;" width="2.467" height="2.467"/>
      <rect x="161.671" y="107.027" style="fill:#62F2FF;" width="2.467" height="2.467"/>
      <rect x="161.85" y="119.839" style="fill:#62F2FF;" width="2.467" height="2.464"/>
      <rect x="161.433" y="100.528" style="fill:#62F2FF;" width="2.467" height="2.464"/>
      <rect x="161.567" y="103.787" style="fill:#62F2FF;" width="2.467" height="2.465"/>
      <rect x="161.269" y="97.25" style="fill:#62F2FF;" width="2.466" height="2.464"/>
      <rect x="161.856" y="123.018" style="fill:#62F2FF;" width="2.467" height="2.464"/>
      <rect x="161.859" y="138.89" style="fill:#62F2FF;" width="2.466" height="2.464"/>
      <rect x="161.86" y="132.54" style="fill:#62F2FF;" width="2.467" height="2.465"/>
      <rect x="161.86" y="135.714" style="fill:#62F2FF;" width="2.467" height="2.464"/>
      <rect x="161.86" y="126.192" style="fill:#62F2FF;" width="2.467" height="2.465"/>
      <rect x="161.86" y="129.367" style="fill:#62F2FF;" width="2.467" height="2.466"/>
      <rect x="121.965" y="202.369" style="fill:#62F2FF;" width="2.467" height="2.468"/>
      <rect x="126.786" y="199.196" style="fill:#62F2FF;" width="2.467" height="2.466"/>
      <rect x="139.75" y="189.674" style="fill:#62F2FF;" width="2.466" height="2.466"/>
      <rect x="131.435" y="196.023" style="fill:#62F2FF;" width="2.466" height="2.465"/>
      <rect x="135.784" y="192.848" style="fill:#62F2FF;" width="2.467" height="2.465"/>
      <rect x="149.03" y="180.151" style="fill:#62F2FF;" width="2.467" height="2.466"/>
      <rect x="146.38" y="183.326" style="fill:#62F2FF;" width="2.467" height="2.463"/>
      <rect x="143.288" y="186.5" style="fill:#62F2FF;" width="2.467" height="2.465"/>
      <rect x="160.237" y="82.465" style="fill:#62F2FF;" width="2.466" height="0.723"/>
      <rect x="160.405" y="84.003" style="fill:#62F2FF;" width="2.467" height="2.465"/>
      <rect x="160.64" y="87.326" style="fill:#62F2FF;" width="2.466" height="2.464"/>
      <rect x="160.864" y="90.644" style="fill:#62F2FF;" width="2.467" height="2.465"/>
      <rect x="161.078" y="93.955" style="fill:#62F2FF;" width="2.467" height="2.464"/>
      <rect x="151.258" y="176.979" style="fill:#62F2FF;" width="2.467" height="2.465"/>
      <rect x="117.153" y="205.545" style="fill:#62F2FF;" width="2.467" height="2.465"/>
      <rect x="175.27" y="113.496" style="fill:#62F2FF;" width="2.462" height="2.466"/>
      <rect x="175.245" y="94.437" style="fill:#62F2FF;" width="2.462" height="2.464"/>
      <rect x="175.21" y="88.066" style="fill:#62F2FF;" width="2.463" height="2.464"/>
      <rect x="175.229" y="91.252" style="fill:#62F2FF;" width="2.462" height="2.465"/>
      <rect x="175.187" y="84.878" style="fill:#62F2FF;" width="2.466" height="2.465"/>
      <rect x="159.873" y="196.023" style="fill:#62F2FF;" width="2.466" height="2.465"/>
      <rect x="157.951" y="199.196" style="fill:#62F2FF;" width="2.464" height="2.466"/>
      <rect x="154.19" y="205.545" style="fill:#62F2FF;" width="2.465" height="2.465"/>
      <rect x="156.03" y="202.369" style="fill:#62F2FF;" width="2.465" height="2.468"/>
      <rect x="175.27" y="110.321" style="fill:#62F2FF;" width="2.462" height="2.466"/>
      <rect x="175.255" y="97.617" style="fill:#62F2FF;" width="2.465" height="2.464"/>
      <rect x="155.908" y="81.844" style="fill:#62F2FF;" width="2.466" height="0.723"/>
      <rect x="175.269" y="107.147" style="fill:#62F2FF;" width="2.464" height="2.466"/>
      <rect x="175.267" y="103.971" style="fill:#62F2FF;" width="2.465" height="2.466"/>
      <rect x="175.27" y="116.67" style="fill:#62F2FF;" width="2.462" height="2.466"/>
      <rect x="175.263" y="100.796" style="fill:#62F2FF;" width="2.464" height="2.464"/>
      <rect x="171.5" y="161.107" style="fill:#62F2FF;" width="2.464" height="2.465"/>
      <rect x="171.22" y="164.282" style="fill:#62F2FF;" width="2.465" height="2.466"/>
      <rect x="170.827" y="167.457" style="fill:#62F2FF;" width="2.465" height="2.465"/>
      <rect x="171.687" y="157.933" style="fill:#62F2FF;" width="2.465" height="2.466"/>
      <rect x="170.298" y="170.631" style="fill:#62F2FF;" width="2.465" height="2.463"/>
      <rect x="171.87" y="151.584" style="fill:#62F2FF;" width="2.465" height="2.467"/>
      <rect x="171.805" y="154.759" style="fill:#62F2FF;" width="2.465" height="2.466"/>
      <rect x="166.491" y="183.326" style="fill:#62F2FF;" width="2.465" height="2.463"/>
      <rect x="169.614" y="173.803" style="fill:#62F2FF;" width="2.465" height="2.466"/>
      <rect x="165.073" y="186.5" style="fill:#62F2FF;" width="2.465" height="2.465"/>
      <rect x="163.479" y="189.674" style="fill:#62F2FF;" width="2.465" height="2.466"/>
      <rect x="161.733" y="192.848" style="fill:#62F2FF;" width="2.466" height="2.465"/>
      <rect x="167.722" y="180.151" style="fill:#62F2FF;" width="2.464" height="2.466"/>
      <rect x="168.76" y="176.979" style="fill:#62F2FF;" width="2.464" height="2.465"/>
      <rect x="172.069" y="180.151" style="fill:#62F2FF;" width="2.463" height="2.466"/>
      <rect x="171.104" y="183.326" style="fill:#62F2FF;" width="2.464" height="2.463"/>
      <rect x="171.903" y="148.412" style="fill:#62F2FF;" width="2.465" height="2.465"/>
      <rect x="168.741" y="189.674" style="fill:#62F2FF;" width="2.466" height="2.466"/>
      <rect x="169.992" y="186.5" style="fill:#62F2FF;" width="2.463" height="2.465"/>
      <rect x="172.882" y="176.979" style="fill:#62F2FF;" width="2.464" height="2.465"/>
      <rect x="174.077" y="170.631" style="fill:#62F2FF;" width="2.464" height="2.463"/>
      <rect x="175.27" y="119.844" style="fill:#62F2FF;" width="2.462" height="2.465"/>
      <rect x="174.481" y="167.457" style="fill:#62F2FF;" width="2.464" height="2.465"/>
      <rect x="161.534" y="205.545" style="fill:#62F2FF;" width="2.465" height="2.465"/>
      <rect x="162.949" y="202.369" style="fill:#62F2FF;" width="2.465" height="2.468"/>
      <rect x="167.376" y="192.848" style="fill:#62F2FF;" width="2.465" height="2.465"/>
      <rect x="208.795" y="83.498" style="fill:#62F2FF;" width="1.356" height="0.723"/>
      <rect x="165.927" y="196.023" style="fill:#62F2FF;" width="2.463" height="2.465"/>
      <rect x="164.433" y="199.196" style="fill:#62F2FF;" width="2.465" height="2.466"/>
      <rect x="173.548" y="173.803" style="fill:#62F2FF;" width="2.465" height="2.466"/>
      <rect x="175.27" y="142.064" style="fill:#62F2FF;" width="2.462" height="2.464"/>
      <rect x="175.27" y="135.714" style="fill:#62F2FF;" width="2.462" height="2.464"/>
      <rect x="175.27" y="138.89" style="fill:#62F2FF;" width="2.462" height="2.464"/>
      <rect x="175.27" y="132.54" style="fill:#62F2FF;" width="2.462" height="2.465"/>
      <rect x="175.27" y="129.367" style="fill:#62F2FF;" width="2.462" height="2.466"/>
      <rect x="175.27" y="123.019" style="fill:#62F2FF;" width="2.462" height="2.464"/>
      <rect x="175.27" y="126.192" style="fill:#62F2FF;" width="2.462" height="2.465"/>
      <rect x="174.985" y="161.107" style="fill:#62F2FF;" width="2.463" height="2.465"/>
      <rect x="175.121" y="157.933" style="fill:#62F2FF;" width="2.462" height="2.466"/>
      <rect x="174.778" y="164.282" style="fill:#62F2FF;" width="2.464" height="2.466"/>
      <rect x="175.269" y="145.237" style="fill:#62F2FF;" width="2.464" height="2.465"/>
      <rect x="175.202" y="154.759" style="fill:#62F2FF;" width="2.463" height="2.466"/>
      <rect x="175.245" y="151.584" style="fill:#62F2FF;" width="2.463" height="2.467"/>
      <rect x="175.263" y="148.412" style="fill:#62F2FF;" width="2.464" height="2.465"/>
      <rect x="168.536" y="107.128" style="fill:#62F2FF;" width="2.465" height="2.467"/>
      <rect x="168.563" y="142.064" style="fill:#62F2FF;" width="2.465" height="2.464"/>
      <rect x="168.558" y="145.237" style="fill:#62F2FF;" width="2.465" height="2.465"/>
      <rect x="168.536" y="148.412" style="fill:#62F2FF;" width="2.465" height="2.465"/>
      <rect x="168.564" y="135.714" style="fill:#62F2FF;" width="2.466" height="2.464"/>
      <rect x="168.564" y="132.54" style="fill:#62F2FF;" width="2.466" height="2.465"/>
      <rect x="168.564" y="138.89" style="fill:#62F2FF;" width="2.466" height="2.464"/>
      <rect x="168.564" y="129.367" style="fill:#62F2FF;" width="2.466" height="2.466"/>
      <rect x="168.487" y="151.584" style="fill:#62F2FF;" width="2.464" height="2.467"/>
      <rect x="165.588" y="173.803" style="fill:#62F2FF;" width="2.464" height="2.466"/>
      <rect x="167.114" y="167.457" style="fill:#62F2FF;" width="2.465" height="2.465"/>
      <rect x="166.445" y="170.631" style="fill:#62F2FF;" width="2.466" height="2.463"/>
      <rect x="167.618" y="164.282" style="fill:#62F2FF;" width="2.465" height="2.466"/>
      <rect x="167.981" y="161.107" style="fill:#62F2FF;" width="2.465" height="2.465"/>
      <rect x="168.231" y="157.933" style="fill:#62F2FF;" width="2.466" height="2.466"/>
      <rect x="168.394" y="154.759" style="fill:#62F2FF;" width="2.464" height="2.466"/>
      <rect x="168.423" y="97.536" style="fill:#62F2FF;" width="2.465" height="2.464"/>
      <rect x="168.473" y="100.741" style="fill:#62F2FF;" width="2.465" height="2.464"/>
      <rect x="168.359" y="94.321" style="fill:#62F2FF;" width="2.465" height="2.464"/>
      <rect x="168.564" y="126.192" style="fill:#62F2FF;" width="2.466" height="2.465"/>
      <rect x="168.286" y="91.1" style="fill:#62F2FF;" width="2.465" height="2.466"/>
      <rect x="171.915" y="145.237" style="fill:#62F2FF;" width="2.465" height="2.465"/>
      <rect x="168.51" y="103.938" style="fill:#62F2FF;" width="2.466" height="2.466"/>
      <rect x="168.205" y="87.875" style="fill:#62F2FF;" width="2.465" height="2.464"/>
      <rect x="168.564" y="119.844" style="fill:#62F2FF;" width="2.466" height="2.465"/>
      <rect x="168.054" y="83.174" style="fill:#62F2FF;" width="2.466" height="0.723"/>
      <rect x="168.563" y="116.67" style="fill:#62F2FF;" width="2.465" height="2.466"/>
      <rect x="168.564" y="123.019" style="fill:#62F2FF;" width="2.466" height="2.464"/>
      <rect x="168.56" y="113.494" style="fill:#62F2FF;" width="2.466" height="2.465"/>
      <rect x="168.552" y="110.313" style="fill:#62F2FF;" width="2.464" height="2.466"/>
      <rect x="168.118" y="84.646" style="fill:#62F2FF;" width="2.465" height="2.464"/>
      <rect x="171.919" y="116.67" style="fill:#62F2FF;" width="2.464" height="2.466"/>
      <rect x="171.864" y="97.593" style="fill:#62F2FF;" width="2.465" height="2.463"/>
      <rect x="171.917" y="113.496" style="fill:#62F2FF;" width="2.465" height="2.466"/>
      <rect x="171.902" y="103.963" style="fill:#62F2FF;" width="2.464" height="2.466"/>
      <rect x="171.911" y="107.143" style="fill:#62F2FF;" width="2.465" height="2.466"/>
      <rect x="171.887" y="100.78" style="fill:#62F2FF;" width="2.465" height="2.465"/>
      <rect x="171.919" y="123.019" style="fill:#62F2FF;" width="2.464" height="2.464"/>
      <rect x="171.919" y="119.844" style="fill:#62F2FF;" width="2.464" height="2.465"/>
      <rect x="171.919" y="138.89" style="fill:#62F2FF;" width="2.464" height="2.464"/>
      <rect x="171.919" y="135.714" style="fill:#62F2FF;" width="2.464" height="2.464"/>
      <rect x="171.919" y="142.064" style="fill:#62F2FF;" width="2.464" height="2.464"/>
      <rect x="171.919" y="129.367" style="fill:#62F2FF;" width="2.464" height="2.466"/>
      <rect x="171.919" y="126.192" style="fill:#62F2FF;" width="2.464" height="2.465"/>
      <rect x="171.919" y="132.54" style="fill:#62F2FF;" width="2.464" height="2.465"/>
      <rect x="164.516" y="176.979" style="fill:#62F2FF;" width="2.466" height="2.465"/>
      <rect x="150.928" y="199.196" style="fill:#62F2FF;" width="2.465" height="2.466"/>
      <rect x="155.722" y="192.848" style="fill:#62F2FF;" width="2.465" height="2.465"/>
      <rect x="153.371" y="196.023" style="fill:#62F2FF;" width="2.464" height="2.465"/>
      <rect x="157.916" y="189.674" style="fill:#62F2FF;" width="2.466" height="2.466"/>
      <rect x="163.219" y="180.151" style="fill:#62F2FF;" width="2.465" height="2.466"/>
      <rect x="161.685" y="183.326" style="fill:#62F2FF;" width="2.465" height="2.463"/>
      <rect x="171.835" y="94.399" style="fill:#62F2FF;" width="2.464" height="2.464"/>
      <rect x="159.913" y="186.5" style="fill:#62F2FF;" width="2.465" height="2.465"/>
      <rect x="146.102" y="205.545" style="fill:#62F2FF;" width="2.464" height="2.465"/>
      <rect x="171.798" y="91.201" style="fill:#62F2FF;" width="2.466" height="2.465"/>
      <rect x="171.709" y="84.797" style="fill:#62F2FF;" width="2.465" height="2.465"/>
      <rect x="171.755" y="88.001" style="fill:#62F2FF;" width="2.466" height="2.464"/>
      <rect x="148.472" y="202.369" style="fill:#62F2FF;" width="2.465" height="2.468"/>
      <rect x="171.675" y="83.343" style="fill:#62F2FF;" width="2.465" height="0.723"/>
      <rect x="171.915" y="110.32" style="fill:#62F2FF;" width="2.466" height="2.467"/>
      <rect x="205.442" y="97.627" style="fill:#62F2FF;" width="2.465" height="2.464"/>
      <rect x="152.047" y="109.892" style="fill:#62F2FF;" width="1.548" height="2.467"/>
      <rect x="152.881" y="208.718" style="fill:#62F2FF;" width="2.465" height="1.011"/>
      <rect x="160.532" y="208.718" style="fill:#62F2FF;" width="2.465" height="1.011"/>
      <rect x="205.442" y="91.277" style="fill:#62F2FF;" width="2.465" height="2.466"/>
      <rect x="205.442" y="94.453" style="fill:#62F2FF;" width="2.465" height="2.464"/>
      <rect x="205.442" y="100.8" style="fill:#62F2FF;" width="2.465" height="2.465"/>
      <rect x="175.171" y="83.436" style="fill:#62F2FF;" width="2.465" height="0.723"/>
      <rect x="91.102" y="208.718" style="fill:#62F2FF;" width="1.549" height="1.011"/>
      <rect x="101.575" y="208.718" style="fill:#62F2FF;" width="2.465" height="1.011"/>
      <rect x="144.405" y="208.718" style="fill:#62F2FF;" width="2.465" height="1.011"/>
      <rect x="151.736" y="106.521" style="fill:#62F2FF;" width="1.548" height="2.467"/>
      <rect x="113.601" y="208.718" style="fill:#62F2FF;" width="2.467" height="1.011"/>
      <rect x="135.056" y="208.718" style="fill:#62F2FF;" width="2.465" height="1.011"/>
      <rect x="124.788" y="208.718" style="fill:#62F2FF;" width="2.467" height="1.011"/>
      <rect x="205.442" y="88.104" style="fill:#62F2FF;" width="2.465" height="2.464"/>
      <rect x="198.738" y="97.627" style="fill:#62F2FF;" width="2.465" height="2.464"/>
      <rect x="198.738" y="100.8" style="fill:#62F2FF;" width="2.465" height="2.465"/>
      <rect x="202.092" y="83.498" style="fill:#62F2FF;" width="2.463" height="0.723"/>
      <rect x="198.738" y="88.104" style="fill:#62F2FF;" width="2.465" height="2.464"/>
      <rect x="198.738" y="94.453" style="fill:#62F2FF;" width="2.465" height="2.464"/>
      <rect x="202.092" y="84.93" style="fill:#62F2FF;" width="2.463" height="2.465"/>
      <rect x="198.738" y="91.277" style="fill:#62F2FF;" width="2.465" height="2.466"/>
      <rect x="202.092" y="94.453" style="fill:#62F2FF;" width="2.463" height="2.464"/>
      <rect x="202.092" y="97.627" style="fill:#62F2FF;" width="2.463" height="2.464"/>
      <rect x="202.092" y="100.8" style="fill:#62F2FF;" width="2.463" height="2.465"/>
      <rect x="205.442" y="83.498" style="fill:#62F2FF;" width="2.465" height="0.723"/>
      <rect x="205.442" y="84.93" style="fill:#62F2FF;" width="2.465" height="2.465"/>
      <rect x="202.092" y="88.104" style="fill:#62F2FF;" width="2.463" height="2.464"/>
      <rect x="202.092" y="91.277" style="fill:#62F2FF;" width="2.463" height="2.466"/>
      <rect x="152.72" y="135.714" style="fill:#62F2FF;" width="1.549" height="2.464"/>
      <rect x="145.728" y="173.803" style="fill:#62F2FF;" width="1.548" height="2.466"/>
      <rect x="143.392" y="176.979" style="fill:#62F2FF;" width="1.548" height="2.465"/>
      <rect x="140.544" y="180.151" style="fill:#62F2FF;" width="1.549" height="2.466"/>
      <rect x="147.608" y="170.631" style="fill:#62F2FF;" width="1.546" height="2.463"/>
      <rect x="150.227" y="164.282" style="fill:#62F2FF;" width="1.549" height="2.466"/>
      <rect x="96.585" y="205.545" style="fill:#62F2FF;" width="1.547" height="2.465"/>
      <rect x="149.088" y="167.457" style="fill:#62F2FF;" width="1.548" height="2.465"/>
      <rect x="151.078" y="161.107" style="fill:#62F2FF;" width="1.549" height="2.465"/>
      <rect x="110.71" y="199.196" style="fill:#62F2FF;" width="1.548" height="2.466"/>
      <rect x="133.118" y="186.5" style="fill:#62F2FF;" width="1.547" height="2.465"/>
      <rect x="152.284" y="113.219" style="fill:#62F2FF;" width="1.549" height="2.466"/>
      <rect x="103.762" y="202.369" style="fill:#62F2FF;" width="1.548" height="2.468"/>
      <rect x="128.46" y="189.674" style="fill:#62F2FF;" width="1.548" height="2.466"/>
      <rect x="123.155" y="192.848" style="fill:#62F2FF;" width="1.548" height="2.465"/>
      <rect x="117.215" y="196.023" style="fill:#62F2FF;" width="1.549" height="2.465"/>
      <rect x="152.712" y="129.361" style="fill:#62F2FF;" width="1.547" height="2.466"/>
      <rect x="152.719" y="132.54" style="fill:#62F2FF;" width="1.548" height="2.465"/>
      <rect x="152.692" y="126.175" style="fill:#62F2FF;" width="1.549" height="2.465"/>
      <rect x="152.577" y="119.753" style="fill:#62F2FF;" width="1.547" height="2.465"/>
      <rect x="152.65" y="122.975" style="fill:#62F2FF;" width="1.549" height="2.464"/>
      <rect x="152.458" y="116.503" style="fill:#62F2FF;" width="1.548" height="2.466"/>
      <rect x="198.738" y="84.93" style="fill:#62F2FF;" width="2.465" height="2.465"/>
      <rect x="152.563" y="148.412" style="fill:#62F2FF;" width="1.547" height="2.465"/>
      <rect x="152.716" y="138.89" style="fill:#62F2FF;" width="1.548" height="2.464"/>
      <rect x="152.115" y="154.759" style="fill:#62F2FF;" width="1.549" height="2.466"/>
      <rect x="151.691" y="157.933" style="fill:#62F2FF;" width="1.549" height="2.466"/>
      <rect x="152.394" y="151.584" style="fill:#62F2FF;" width="1.549" height="2.467"/>
      <rect x="152.699" y="142.064" style="fill:#62F2FF;" width="1.548" height="2.464"/>
      <rect x="152.655" y="145.237" style="fill:#62F2FF;" width="1.549" height="2.465"/>
      <rect x="137.134" y="183.326" style="fill:#62F2FF;" width="1.548" height="2.463"/>
      <rect x="178.606" y="88.094" style="fill:#62F2FF;" width="2.465" height="2.464"/>
      <rect x="198.738" y="83.498" style="fill:#62F2FF;" width="2.465" height="0.723"/>
      <rect x="178.618" y="94.45" style="fill:#62F2FF;" width="2.464" height="2.464"/>
      <rect x="178.593" y="83.479" style="fill:#62F2FF;" width="2.464" height="0.723"/>
      <rect x="178.6" y="84.915" style="fill:#62F2FF;" width="2.464" height="2.465"/>
      <rect x="178.623" y="103.973" style="fill:#62F2FF;" width="2.464" height="2.27"/>
      <rect x="178.623" y="100.799" style="fill:#62F2FF;" width="2.464" height="2.465"/>
      <rect x="178.621" y="97.625" style="fill:#62F2FF;" width="2.463" height="2.464"/>
      <rect x="181.975" y="103.973" style="fill:#62F2FF;" width="2.466" height="2.27"/>
      <rect x="181.974" y="94.453" style="fill:#62F2FF;" width="2.467" height="2.464"/>
      <rect x="181.973" y="88.103" style="fill:#62F2FF;" width="2.466" height="2.464"/>
      <rect x="181.974" y="91.277" style="fill:#62F2FF;" width="2.467" height="2.466"/>
      <rect x="181.975" y="100.8" style="fill:#62F2FF;" width="2.466" height="2.465"/>
      <rect x="181.971" y="84.928" style="fill:#62F2FF;" width="2.466" height="2.465"/>
      <rect x="181.969" y="83.496" style="fill:#62F2FF;" width="2.466" height="0.723"/>
      <rect x="208.795" y="97.627" style="fill:#62F2FF;" width="1.356" height="2.464"/>
      <rect x="185.328" y="103.973" style="fill:#62F2FF;" width="2.465" height="2.27"/>
      <rect x="208.795" y="94.453" style="fill:#62F2FF;" width="1.356" height="2.464"/>
      <rect x="208.795" y="100.8" style="fill:#62F2FF;" width="1.356" height="2.465"/>
      <rect x="208.795" y="91.277" style="fill:#62F2FF;" width="1.356" height="2.466"/>
      <rect x="208.795" y="84.93" style="fill:#62F2FF;" width="1.356" height="2.465"/>
      <rect x="208.795" y="88.104" style="fill:#62F2FF;" width="1.356" height="2.464"/>
      <rect x="208.795" y="103.973" style="fill:#62F2FF;" width="1.356" height="2.27"/>
      <rect x="192.034" y="103.973" style="fill:#62F2FF;" width="2.464" height="2.27"/>
      <rect x="205.442" y="103.973" style="fill:#62F2FF;" width="2.465" height="2.27"/>
      <rect x="188.681" y="103.973" style="fill:#62F2FF;" width="2.464" height="2.27"/>
      <rect x="195.385" y="103.973" style="fill:#62F2FF;" width="2.466" height="2.27"/>
      <rect x="202.092" y="103.973" style="fill:#62F2FF;" width="2.463" height="2.27"/>
      <rect x="198.738" y="103.973" style="fill:#62F2FF;" width="2.465" height="2.27"/>
      <rect x="178.612" y="91.271" style="fill:#62F2FF;" width="2.466" height="2.466"/>
      <rect x="192.034" y="94.453" style="fill:#62F2FF;" width="2.464" height="2.464"/>
      <rect x="192.034" y="100.8" style="fill:#62F2FF;" width="2.464" height="2.465"/>
      <rect x="192.034" y="97.627" style="fill:#62F2FF;" width="2.464" height="2.464"/>
      <rect x="192.034" y="88.104" style="fill:#62F2FF;" width="2.464" height="2.464"/>
      <rect x="192.034" y="84.93" style="fill:#62F2FF;" width="2.464" height="2.465"/>
      <rect x="192.034" y="91.277" style="fill:#62F2FF;" width="2.464" height="2.466"/>
      <rect x="195.385" y="83.498" style="fill:#62F2FF;" width="2.466" height="0.723"/>
      <rect x="195.385" y="88.104" style="fill:#62F2FF;" width="2.466" height="2.464"/>
      <rect x="195.385" y="100.8" style="fill:#62F2FF;" width="2.466" height="2.465"/>
      <rect x="195.385" y="94.453" style="fill:#62F2FF;" width="2.466" height="2.464"/>
      <rect x="195.385" y="84.93" style="fill:#62F2FF;" width="2.466" height="2.465"/>
      <rect x="195.385" y="97.627" style="fill:#62F2FF;" width="2.466" height="2.464"/>
      <rect x="192.034" y="83.498" style="fill:#62F2FF;" width="2.464" height="0.723"/>
      <rect x="195.385" y="91.277" style="fill:#62F2FF;" width="2.466" height="2.466"/>
      <rect x="188.681" y="91.277" style="fill:#62F2FF;" width="2.464" height="2.466"/>
      <rect x="185.328" y="94.453" style="fill:#62F2FF;" width="2.465" height="2.464"/>
      <rect x="185.328" y="91.277" style="fill:#62F2FF;" width="2.465" height="2.466"/>
      <rect x="185.328" y="100.8" style="fill:#62F2FF;" width="2.465" height="2.465"/>
      <rect x="185.327" y="83.498" style="fill:#62F2FF;" width="2.466" height="0.723"/>
      <rect x="185.328" y="97.627" style="fill:#62F2FF;" width="2.465" height="2.464"/>
      <rect x="185.328" y="88.104" style="fill:#62F2FF;" width="2.465" height="2.464"/>
      <rect x="185.328" y="84.93" style="fill:#62F2FF;" width="2.465" height="2.465"/>
      <rect x="188.681" y="100.8" style="fill:#62F2FF;" width="2.464" height="2.465"/>
      <rect x="188.681" y="94.453" style="fill:#62F2FF;" width="2.464" height="2.464"/>
      <rect x="181.975" y="97.627" style="fill:#62F2FF;" width="2.466" height="2.464"/>
      <rect x="188.681" y="83.498" style="fill:#62F2FF;" width="2.464" height="0.723"/>
      <rect x="188.681" y="97.627" style="fill:#62F2FF;" width="2.464" height="2.464"/>
      <rect x="188.681" y="84.93" style="fill:#62F2FF;" width="2.464" height="2.465"/>
      <rect x="188.681" y="88.104" style="fill:#62F2FF;" width="2.464" height="2.464"/>
      <rect x="114.278" y="91.843" style="fill:#62F2FF;" width="2.467" height="2.465"/>
      <rect x="151.206" y="80.982" style="fill:#62F2FF;" width="2.465" height="0.723"/>
      <rect x="154.725" y="110.048" style="fill:#62F2FF;" width="2.467" height="2.467"/>
      <rect x="152.079" y="86.145" style="fill:#62F2FF;" width="2.466" height="2.464"/>
      <rect x="151.568" y="82.645" style="fill:#62F2FF;" width="2.466" height="2.464"/>
      <rect x="147.274" y="85.219" style="fill:#62F2FF;" width="2.465" height="2.464"/>
      <rect x="147.989" y="88.846" style="fill:#62F2FF;" width="2.464" height="2.465"/>
      <rect x="148.67" y="92.455" style="fill:#62F2FF;" width="2.464" height="2.465"/>
      <rect x="149.862" y="99.563" style="fill:#62F2FF;" width="2.465" height="2.465"/>
      <rect x="154.232" y="103.386" style="fill:#62F2FF;" width="2.466" height="2.466"/>
      <rect x="152.585" y="89.641" style="fill:#62F2FF;" width="2.466" height="2.465"/>
      <rect x="153.897" y="100" style="fill:#62F2FF;" width="2.467" height="2.464"/>
      <rect x="154.509" y="106.736" style="fill:#62F2FF;" width="2.465" height="2.467"/>
      <rect x="153.065" y="93.121" style="fill:#62F2FF;" width="2.465" height="2.464"/>
      <polygon style="fill:#62F2FF;" points="150.349,105.317 151.266,105.317 151.266,105.513 152.814,105.513 152.814,103.047 &#10;&#9;&#9;&#9;150.349,103.047 &#9;&#9;"/>
      <rect x="149.3" y="96.031" style="fill:#62F2FF;" width="2.465" height="2.464"/>
      <rect x="140.023" y="94.394" style="fill:#62F2FF;" width="2.464" height="2.464"/>
      <rect x="140.344" y="78.333" style="fill:#62F2FF;" width="2.465" height="0.724"/>
      <rect x="141.079" y="98.239" style="fill:#62F2FF;" width="2.465" height="2.465"/>
      <rect x="146.557" y="81.587" style="fill:#62F2FF;" width="2.464" height="2.464"/>
      <rect x="141.043" y="80.21" style="fill:#62F2FF;" width="2.464" height="2.465"/>
      <rect x="136.279" y="82.485" style="fill:#62F2FF;" width="2.465" height="2.464"/>
      <rect x="137.593" y="86.496" style="fill:#62F2FF;" width="2.464" height="2.465"/>
      <rect x="138.853" y="90.473" style="fill:#62F2FF;" width="2.464" height="2.464"/>
      <rect x="144.815" y="95.311" style="fill:#62F2FF;" width="2.464" height="2.464"/>
      <rect x="145.598" y="98.982" style="fill:#62F2FF;" width="2.465" height="2.465"/>
      <rect x="142.028" y="84.012" style="fill:#62F2FF;" width="2.465" height="2.464"/>
      <rect x="146.047" y="79.831" style="fill:#62F2FF;" width="2.465" height="0.723"/>
      <rect x="143.008" y="87.81" style="fill:#62F2FF;" width="2.463" height="2.465"/>
      <rect x="143.946" y="91.582" style="fill:#62F2FF;" width="2.462" height="2.464"/>
      <rect x="155.024" y="148.412" style="fill:#62F2FF;" width="2.465" height="2.465"/>
      <rect x="148.881" y="173.803" style="fill:#62F2FF;" width="2.466" height="2.466"/>
      <rect x="146.772" y="176.979" style="fill:#62F2FF;" width="2.466" height="2.465"/>
      <rect x="154.888" y="113.327" style="fill:#62F2FF;" width="2.466" height="2.466"/>
      <rect x="151.915" y="167.457" style="fill:#62F2FF;" width="2.467" height="2.465"/>
      <rect x="152.942" y="164.282" style="fill:#62F2FF;" width="2.465" height="2.466"/>
      <rect x="141.149" y="183.326" style="fill:#62F2FF;" width="2.466" height="2.463"/>
      <rect x="150.579" y="170.631" style="fill:#62F2FF;" width="2.464" height="2.463"/>
      <rect x="133.427" y="189.674" style="fill:#62F2FF;" width="2.466" height="2.466"/>
      <rect x="137.561" y="186.5" style="fill:#62F2FF;" width="2.465" height="2.465"/>
      <rect x="117.966" y="199.196" style="fill:#62F2FF;" width="2.466" height="2.466"/>
      <rect x="106.072" y="205.545" style="fill:#62F2FF;" width="2.466" height="2.465"/>
      <rect x="123.573" y="196.023" style="fill:#62F2FF;" width="2.465" height="2.465"/>
      <rect x="153.707" y="161.107" style="fill:#62F2FF;" width="2.466" height="2.465"/>
      <rect x="128.753" y="192.848" style="fill:#62F2FF;" width="2.466" height="2.465"/>
      <rect x="144.21" y="180.151" style="fill:#62F2FF;" width="2.466" height="2.466"/>
      <rect x="155.151" y="129.366" style="fill:#62F2FF;" width="2.466" height="2.465"/>
      <rect x="154.256" y="157.933" style="fill:#62F2FF;" width="2.467" height="2.466"/>
      <rect x="155.144" y="126.186" style="fill:#62F2FF;" width="2.465" height="2.464"/>
      <rect x="155.003" y="116.574" style="fill:#62F2FF;" width="2.464" height="2.465"/>
      <rect x="155.121" y="122.998" style="fill:#62F2FF;" width="2.466" height="2.464"/>
      <rect x="155.153" y="135.714" style="fill:#62F2FF;" width="2.467" height="2.464"/>
      <rect x="155.076" y="119.796" style="fill:#62F2FF;" width="2.466" height="2.464"/>
      <rect x="155.153" y="132.54" style="fill:#62F2FF;" width="2.467" height="2.465"/>
      <rect x="154.878" y="151.584" style="fill:#62F2FF;" width="2.466" height="2.467"/>
      <rect x="134.955" y="78.467" style="fill:#62F2FF;" width="2.465" height="2.465"/>
      <rect x="155.151" y="138.89" style="fill:#62F2FF;" width="2.465" height="2.464"/>
      <rect x="154.634" y="154.759" style="fill:#62F2FF;" width="2.466" height="2.466"/>
      <rect x="155.14" y="142.064" style="fill:#62F2FF;" width="2.464" height="2.464"/>
      <rect x="155.103" y="145.237" style="fill:#62F2FF;" width="2.465" height="2.465"/>
      <rect x="153.507" y="96.577" style="fill:#62F2FF;" width="2.466" height="2.464"/>
      <rect x="94.479" y="71.838" style="fill:#62F2FF;" width="2.465" height="2.465"/>
      <rect x="89.015" y="65.183" style="fill:#62F2FF;" width="2.464" height="2.464"/>
      <rect x="99.552" y="78.246" style="fill:#62F2FF;" width="2.463" height="2.464"/>
      <rect x="97.276" y="82.107" style="fill:#62F2FF;" width="2.465" height="2.464"/>
      <rect x="108.213" y="90.114" style="fill:#62F2FF;" width="2.464" height="2.465"/>
      <rect x="83.292" y="58.361" style="fill:#62F2FF;" width="2.465" height="2.465"/>
      <rect x="79.086" y="54.25" style="fill:#62F2FF;" width="2.466" height="0.723"/>
      <rect x="93.799" y="62.92" style="fill:#62F2FF;" width="2.466" height="2.465"/>
      <rect x="102.881" y="75.057" style="fill:#62F2FF;" width="2.466" height="2.465"/>
      <rect x="107.06" y="80.895" style="fill:#62F2FF;" width="2.466" height="2.465"/>
      <rect x="98.419" y="69.04" style="fill:#62F2FF;" width="2.467" height="2.464"/>
      <rect x="102.057" y="88.326" style="fill:#62F2FF;" width="2.464" height="2.465"/>
      <rect x="90.436" y="59.346" style="fill:#62F2FF;" width="2.467" height="0.723"/>
      <rect x="104.144" y="84.347" style="fill:#62F2FF;" width="2.464" height="2.464"/>
      <rect x="106.063" y="94.054" style="fill:#62F2FF;" width="2.464" height="2.27"/>
      <rect x="127.743" y="99.323" style="fill:#62F2FF;" width="2.465" height="2.27"/>
      <rect x="132.721" y="100.359" style="fill:#62F2FF;" width="2.464" height="2.27"/>
      <rect x="122.543" y="98.147" style="fill:#62F2FF;" width="2.467" height="2.27"/>
      <rect x="146.261" y="102.578" style="fill:#62F2FF;" width="2.464" height="2.27"/>
      <rect x="117.161" y="96.853" style="fill:#62F2FF;" width="2.467" height="2.27"/>
      <rect x="141.977" y="101.985" style="fill:#62F2FF;" width="2.466" height="2.27"/>
      <rect x="137.469" y="101.248" style="fill:#62F2FF;" width="2.463" height="2.27"/>
      <rect x="79.188" y="61.057" style="fill:#62F2FF;" width="2.465" height="2.464"/>
      <rect x="111.644" y="95.473" style="fill:#62F2FF;" width="2.465" height="2.27"/>
      <rect x="85.786" y="68.435" style="fill:#62F2FF;" width="2.465" height="2.466"/>
      <rect x="72.191" y="53.423" style="fill:#62F2FF;" width="2.465" height="2.465"/>
      <rect x="91.843" y="75.469" style="fill:#62F2FF;" width="2.463" height="2.464"/>
      <rect x="112.063" y="202.369" style="fill:#62F2FF;" width="2.465" height="2.468"/>
      <rect x="66.983" y="48.672" style="fill:#62F2FF;" width="2.465" height="0.723"/>
      <rect x="133.355" y="89.106" style="fill:#62F2FF;" width="2.464" height="2.464"/>
      <rect x="131.194" y="96.213" style="fill:#62F2FF;" width="2.463" height="2.464"/>
      <rect x="129.406" y="91.901" style="fill:#62F2FF;" width="2.462" height="2.463"/>
      <rect x="119.155" y="71.24" style="fill:#62F2FF;" width="2.463" height="0.723"/>
      <rect x="123.047" y="78.324" style="fill:#62F2FF;" width="2.461" height="2.464"/>
      <rect x="120.774" y="73.703" style="fill:#62F2FF;" width="2.463" height="2.465"/>
      <rect x="126.981" y="74.089" style="fill:#62F2FF;" width="2.463" height="0.723"/>
      <rect x="125.286" y="82.925" style="fill:#62F2FF;" width="2.463" height="2.466"/>
      <rect x="127.424" y="87.463" style="fill:#62F2FF;" width="2.463" height="2.464"/>
      <rect x="136.284" y="97.319" style="fill:#62F2FF;" width="2.463" height="2.465"/>
      <rect x="134.017" y="76.437" style="fill:#62F2FF;" width="2.464" height="0.724"/>
      <rect x="110.877" y="86.501" style="fill:#62F2FF;" width="2.466" height="2.464"/>
      <rect x="129.97" y="80.6" style="fill:#62F2FF;" width="2.463" height="2.464"/>
      <rect x="131.7" y="84.876" style="fill:#62F2FF;" width="2.463" height="2.465"/>
      <rect x="128.223" y="76.312" style="fill:#62F2FF;" width="2.463" height="2.465"/>
      <rect x="134.894" y="93.261" style="fill:#62F2FF;" width="2.464" height="2.464"/>
      <rect x="114.253" y="83.342" style="fill:#62F2FF;" width="2.465" height="2.464"/>
      <rect x="110.858" y="78.004" style="fill:#62F2FF;" width="2.465" height="2.465"/>
      <rect x="120.166" y="93.458" style="fill:#62F2FF;" width="2.466" height="2.465"/>
      <rect x="100.913" y="63.886" style="fill:#62F2FF;" width="2.465" height="0.723"/>
      <rect x="123.562" y="90.313" style="fill:#62F2FF;" width="2.466" height="2.464"/>
      <rect x="117.371" y="88.504" style="fill:#62F2FF;" width="2.466" height="2.464"/>
      <rect x="103.574" y="67.014" style="fill:#62F2FF;" width="2.466" height="2.465"/>
      <rect x="107.264" y="72.54" style="fill:#62F2FF;" width="2.466" height="2.464"/>
      <rect x="121.057" y="85.54" style="fill:#62F2FF;" width="2.464" height="2.464"/>
      <rect x="125.82" y="94.924" style="fill:#62F2FF;" width="2.464" height="2.464"/>
      <rect x="118.342" y="80.636" style="fill:#62F2FF;" width="2.464" height="2.466"/>
      <rect x="115.485" y="75.642" style="fill:#62F2FF;" width="2.465" height="2.464"/>
      <rect x="110.485" y="67.851" style="fill:#62F2FF;" width="2.466" height="0.723"/>
      <rect x="112.573" y="70.611" style="fill:#62F2FF;" width="2.465" height="2.465"/>
    </g>
  </g>
</svg>